<svg xmlns="http://www.w3.org/2000/svg" width="480" height="300" viewBox="0 0 480 300"><rect width="480" height="300" rx="24" fill="#e9dffc"/><path d="M174.57 164.28L199.96 82.10L208.26 82.10L182.87 164.28L174.57 164.28ZM226.38 146.80L226.38 146.80L226.38 175.80L217.34 175.80L217.34 100.31L226.38 100.31L226.38 108.61Q229.21 103.73 233.53 101.36Q237.85 98.99 243.86 98.99L243.86 98.99Q253.82 98.99 260.04 106.90Q266.27 114.81 266.27 127.71L266.27 127.71Q266.27 140.60 260.04 148.51Q253.82 156.42 243.86 156.42L243.86 156.42Q237.85 156.42 233.53 154.05Q229.21 151.68 226.38 146.80ZM256.94 127.71L256.94 127.71Q256.94 117.79 252.87 112.15Q248.79 106.51 241.66 106.51L241.66 106.51Q234.53 106.51 230.45 112.15Q226.38 117.79 226.38 127.71L226.38 127.71Q226.38 137.62 230.45 143.26Q234.53 148.90 241.66 148.90L241.66 148.90Q248.79 148.90 252.87 143.26Q256.94 137.62 256.94 127.71ZM271.74 164.28L297.13 82.10L305.43 82.10L280.04 164.28L271.74 164.28Z" fill="#142b57"/><path d="M151.95 233.87L151.95 233.87L151.95 241.41L149.60 241.41L149.60 221.78L151.95 221.78L151.95 223.94Q152.68 222.67 153.81 222.05Q154.93 221.44 156.49 221.44L156.49 221.44Q159.08 221.44 160.70 223.50Q162.32 225.55 162.32 228.90L162.32 228.90Q162.32 232.25 160.70 234.31Q159.08 236.37 156.49 236.37L156.49 236.37Q154.93 236.37 153.81 235.75Q152.68 235.14 151.95 233.87ZM159.89 228.90L159.89 228.90Q159.89 226.33 158.83 224.86Q157.77 223.39 155.92 223.39L155.92 223.39Q154.07 223.39 153.01 224.86Q151.95 226.33 151.95 228.90L151.95 228.90Q151.95 231.48 153.01 232.95Q154.07 234.41 155.92 234.41L155.92 234.41Q157.77 234.41 158.83 232.95Q159.89 231.48 159.89 228.90ZM178.35 228.31L178.35 228.31L178.35 229.45L167.61 229.45Q167.76 231.86 169.06 233.12Q170.37 234.39 172.69 234.39L172.69 234.39Q174.04 234.39 175.30 234.06Q176.56 233.73 177.81 233.07L177.81 233.07L177.81 235.28Q176.55 235.81 175.23 236.09Q173.91 236.37 172.55 236.37L172.55 236.37Q169.15 236.37 167.16 234.39Q165.17 232.41 165.17 229.03L165.17 229.03Q165.17 225.54 167.06 223.49Q168.94 221.44 172.14 221.44L172.14 221.44Q175.01 221.44 176.68 223.29Q178.35 225.13 178.35 228.31ZM167.69 227.63L176.02 227.62Q175.99 225.70 174.94 224.56Q173.90 223.42 172.17 223.42L172.17 223.42Q170.21 223.42 169.04 224.52Q167.87 225.63 167.69 227.63L167.69 227.63ZM194.00 227.42L194.00 227.42L194.00 236L191.67 236L191.67 227.49Q191.67 225.48 190.88 224.47Q190.09 223.47 188.52 223.47L188.52 223.47Q186.63 223.47 185.54 224.68Q184.45 225.88 184.45 227.96L184.45 227.96L184.45 236L182.10 236L182.10 221.78L184.45 221.78L184.45 223.99Q185.28 222.71 186.42 222.07Q187.56 221.44 189.04 221.44L189.04 221.44Q191.49 221.44 192.75 222.96Q194.00 224.47 194.00 227.42ZM225.72 233.87L225.72 233.87L225.72 241.41L223.37 241.41L223.37 221.78L225.72 221.78L225.72 223.94Q226.45 222.67 227.58 222.05Q228.70 221.44 230.26 221.44L230.26 221.44Q232.85 221.44 234.47 223.50Q236.09 225.55 236.09 228.90L236.09 228.90Q236.09 232.25 234.47 234.31Q232.85 236.37 230.26 236.37L230.26 236.37Q228.70 236.37 227.58 235.75Q226.45 235.14 225.72 233.87ZM233.67 228.90L233.67 228.90Q233.67 226.33 232.60 224.86Q231.54 223.39 229.69 223.39L229.69 223.39Q227.84 223.39 226.78 224.86Q225.72 226.33 225.72 228.90L225.72 228.90Q225.72 231.48 226.78 232.95Q227.84 234.41 229.69 234.41L229.69 234.41Q231.54 234.41 232.60 232.95Q233.67 231.48 233.67 228.90ZM239.96 236L239.96 221.78L242.30 221.78L242.30 236L239.96 236ZM239.96 219.20L239.96 216.25L242.30 216.25L242.30 219.20L239.96 219.20ZM256.54 228.73L256.54 228.73Q256.54 226.19 255.49 224.79Q254.45 223.39 252.56 223.39L252.56 223.39Q250.68 223.39 249.63 224.79Q248.58 226.19 248.58 228.73L248.58 228.73Q248.58 231.25 249.63 232.65Q250.68 234.04 252.56 234.04L252.56 234.04Q254.45 234.04 255.49 232.65Q256.54 231.25 256.54 228.73ZM258.88 221.78L258.88 234.24Q258.88 237.87 257.27 239.64Q255.65 241.41 252.33 241.41L252.33 241.41Q251.10 241.41 250.00 241.22Q248.91 241.04 247.88 240.66L247.88 240.66L247.88 238.39Q248.91 238.95 249.92 239.21Q250.92 239.48 251.96 239.48L251.96 239.48Q254.26 239.48 255.40 238.28Q256.54 237.08 256.54 234.65L256.54 234.65L256.54 233.50Q255.82 234.76 254.69 235.38Q253.56 236 251.98 236L251.98 236Q249.37 236 247.77 234.01Q246.17 232.01 246.17 228.73L246.17 228.73Q246.17 225.42 247.77 223.43Q249.37 221.44 251.98 221.44L251.98 221.44Q253.56 221.44 254.69 222.06Q255.82 222.68 256.54 223.94L256.54 223.94L256.54 221.78L258.88 221.78ZM298.72 222.33L298.72 222.33L298.72 224.51Q297.73 223.96 296.73 223.69Q295.73 223.42 294.72 223.42L294.72 223.42Q292.44 223.42 291.19 224.86Q289.93 226.30 289.93 228.90L289.93 228.90Q289.93 231.51 291.19 232.95Q292.44 234.39 294.72 234.39L294.72 234.39Q295.73 234.39 296.73 234.11Q297.73 233.84 298.72 233.30L298.72 233.30L298.72 235.45Q297.74 235.91 296.69 236.14Q295.64 236.37 294.46 236.37L294.46 236.37Q291.25 236.37 289.36 234.35Q287.47 232.33 287.47 228.90L287.47 228.90Q287.47 225.42 289.38 223.43Q291.29 221.44 294.62 221.44L294.62 221.44Q295.69 221.44 296.72 221.66Q297.75 221.88 298.72 222.33ZM311.56 228.85L309.24 228.85Q306.41 228.85 305.32 229.50Q304.23 230.15 304.23 231.71L304.23 231.71Q304.23 232.95 305.04 233.68Q305.86 234.41 307.27 234.41L307.27 234.41Q309.21 234.41 310.39 233.04Q311.56 231.66 311.56 229.37L311.56 229.37L311.56 228.85ZM313.90 227.89L313.90 227.89L313.90 236L311.56 236L311.56 233.84Q310.76 235.14 309.57 235.75Q308.38 236.37 306.65 236.37L306.65 236.37Q304.47 236.37 303.18 235.14Q301.89 233.92 301.89 231.86L301.89 231.86Q301.89 229.46 303.50 228.24Q305.10 227.02 308.29 227.02L308.29 227.02L311.56 227.02L311.56 226.80Q311.56 225.18 310.50 224.30Q309.44 223.42 307.53 223.42L307.53 223.42Q306.31 223.42 305.15 223.71Q304.00 224.00 302.93 224.59L302.93 224.59L302.93 222.43Q304.21 221.93 305.42 221.69Q306.63 221.44 307.77 221.44L307.77 221.44Q310.85 221.44 312.38 223.04Q313.90 224.64 313.90 227.89ZM320.97 233.87L320.97 233.87L320.97 241.41L318.62 241.41L318.62 221.78L320.97 221.78L320.97 223.94Q321.71 222.67 322.83 222.05Q323.95 221.44 325.52 221.44L325.52 221.44Q328.11 221.44 329.72 223.50Q331.34 225.55 331.34 228.90L331.34 228.90Q331.34 232.25 329.72 234.31Q328.11 236.37 325.52 236.37L325.52 236.37Q323.95 236.37 322.83 235.75Q321.71 235.14 320.97 233.87ZM328.92 228.90L328.92 228.90Q328.92 226.33 327.86 224.86Q326.80 223.39 324.94 223.39L324.94 223.39Q323.09 223.39 322.03 224.86Q320.97 226.33 320.97 228.90L320.97 228.90Q320.97 231.48 322.03 232.95Q323.09 234.41 324.94 234.41L324.94 234.41Q326.80 234.41 327.86 232.95Q328.92 231.48 328.92 228.90Z" fill="#142b57"/></svg>
