<svg xmlns="http://www.w3.org/2000/svg" width="480" height="300" viewBox="0 0 480 300"><rect width="480" height="300" rx="24" fill="#e9dffc"/><path d="M165.42 164.28L190.81 82.10L199.11 82.10L173.72 164.28L165.42 164.28ZM217.61 155L203.31 100.31L212.29 100.31L223.52 142.99L234.70 100.31L245.30 100.31L256.53 142.99L267.71 100.31L276.69 100.31L262.39 155L251.79 155L240.02 110.18L228.21 155L217.61 155ZM280.89 164.28L306.28 82.10L314.58 82.10L289.19 164.28L280.89 164.28Z" fill="#142b57"/><path d="M136.77 236L133.05 221.78L135.38 221.78L138.30 232.88L141.21 221.78L143.97 221.78L146.89 232.88L149.79 221.78L152.13 221.78L148.41 236L145.65 236L142.60 224.35L139.52 236L136.77 236ZM167.83 228.31L167.83 228.31L167.83 229.45L157.09 229.45Q157.25 231.86 158.55 233.12Q159.85 234.39 162.17 234.39L162.17 234.39Q163.52 234.39 164.78 234.06Q166.04 233.73 167.29 233.07L167.29 233.07L167.29 235.28Q166.03 235.81 164.71 236.09Q163.39 236.37 162.03 236.37L162.03 236.37Q158.63 236.37 156.64 234.39Q154.66 232.41 154.66 229.03L154.66 229.03Q154.66 225.54 156.54 223.49Q158.43 221.44 161.63 221.44L161.63 221.44Q164.49 221.44 166.16 223.29Q167.83 225.13 167.83 228.31ZM157.17 227.63L165.50 227.62Q165.47 225.70 164.42 224.56Q163.38 223.42 161.65 223.42L161.65 223.42Q159.70 223.42 158.52 224.52Q157.35 225.63 157.17 227.63L157.17 227.63ZM171.63 217.74L173.98 217.74L173.98 221.78L178.79 221.78L178.79 223.60L173.98 223.60L173.98 231.32Q173.98 233.05 174.45 233.55Q174.93 234.04 176.39 234.04L176.39 234.04L178.79 234.04L178.79 236L176.39 236Q173.69 236 172.66 234.99Q171.63 233.98 171.63 231.32L171.63 231.32L171.63 223.60L169.92 223.60L169.92 221.78L171.63 221.78L171.63 217.74ZM209.02 236L205.30 221.78L207.63 221.78L210.55 232.88L213.46 221.78L216.22 221.78L219.14 232.88L222.04 221.78L224.38 221.78L220.66 236L217.90 236L214.84 224.35L211.77 236L209.02 236ZM227.92 236L227.92 221.78L230.26 221.78L230.26 236L227.92 236ZM227.92 219.20L227.92 216.25L230.26 216.25L230.26 219.20L227.92 219.20ZM246.96 227.42L246.96 227.42L246.96 236L244.63 236L244.63 227.49Q244.63 225.48 243.84 224.47Q243.05 223.47 241.48 223.47L241.48 223.47Q239.59 223.47 238.50 224.68Q237.40 225.88 237.40 227.96L237.40 227.96L237.40 236L235.06 236L235.06 221.78L237.40 221.78L237.40 223.99Q238.24 222.71 239.38 222.07Q240.51 221.44 242.00 221.44L242.00 221.44Q244.45 221.44 245.71 222.96Q246.96 224.47 246.96 227.42ZM278.78 236L275.06 221.78L277.39 221.78L280.31 232.88L283.22 221.78L285.98 221.78L288.90 232.88L291.80 221.78L294.14 221.78L290.42 236L287.66 236L284.60 224.35L281.53 236L278.78 236ZM306.47 228.85L304.14 228.85Q301.31 228.85 300.22 229.50Q299.13 230.15 299.13 231.71L299.13 231.71Q299.13 232.95 299.95 233.68Q300.77 234.41 302.18 234.41L302.18 234.41Q304.12 234.41 305.29 233.04Q306.47 231.66 306.47 229.37L306.47 229.37L306.47 228.85ZM308.80 227.89L308.80 227.89L308.80 236L306.47 236L306.47 233.84Q305.67 235.14 304.47 235.75Q303.28 236.37 301.55 236.37L301.55 236.37Q299.37 236.37 298.08 235.14Q296.79 233.92 296.79 231.86L296.79 231.86Q296.79 229.46 298.40 228.24Q300.00 227.02 303.19 227.02L303.19 227.02L306.47 227.02L306.47 226.80Q306.47 225.18 305.41 224.30Q304.35 223.42 302.43 223.42L302.43 223.42Q301.21 223.42 300.06 223.71Q298.90 224.00 297.83 224.59L297.83 224.59L297.83 222.43Q299.12 221.93 300.32 221.69Q301.53 221.44 302.67 221.44L302.67 221.44Q305.76 221.44 307.28 223.04Q308.80 224.64 308.80 227.89ZM313.58 217.74L315.92 217.74L315.92 221.78L320.74 221.78L320.74 223.60L315.92 223.60L315.92 231.32Q315.92 233.05 316.40 233.55Q316.88 234.04 318.34 234.04L318.34 234.04L320.74 234.04L320.74 236L318.34 236Q315.63 236 314.60 234.99Q313.58 233.98 313.58 231.32L313.58 231.32L313.58 223.60L311.86 223.60L311.86 221.78L313.58 221.78L313.58 217.74ZM335.97 228.31L335.97 228.31L335.97 229.45L325.23 229.45Q325.38 231.86 326.68 233.12Q327.98 234.39 330.31 234.39L330.31 234.39Q331.65 234.39 332.92 234.06Q334.18 233.73 335.42 233.07L335.42 233.07L335.42 235.28Q334.17 235.81 332.85 236.09Q331.53 236.37 330.17 236.37L330.17 236.37Q326.77 236.37 324.78 234.39Q322.79 232.41 322.79 229.03L322.79 229.03Q322.79 225.54 324.68 223.49Q326.56 221.44 329.76 221.44L329.76 221.44Q332.63 221.44 334.30 223.29Q335.97 225.13 335.97 228.31ZM325.31 227.63L333.63 227.62Q333.61 225.70 332.56 224.56Q331.51 223.42 329.79 223.42L329.79 223.42Q327.83 223.42 326.66 224.52Q325.48 225.63 325.31 227.63L325.31 227.63ZM348.03 221.57L348.04 223.96Q347.65 223.74 347.19 223.63Q346.72 223.52 346.16 223.52L346.16 223.52Q344.18 223.52 343.12 224.81Q342.06 226.10 342.06 228.51L342.06 228.51L342.06 236L339.72 236L339.72 221.78L342.06 221.78L342.06 223.99Q342.80 222.70 343.98 222.07Q345.16 221.44 346.85 221.44L346.85 221.44Q347.09 221.44 347.38 221.47Q347.68 221.50 348.03 221.57L348.03 221.57Z" fill="#142b57"/></svg>
