<svg xmlns="http://www.w3.org/2000/svg" width="256" height="256" viewBox="0 0 256 256"><defs><linearGradient id="sun" x1="0" y1="0" x2=".65" y2="1"><stop stop-color="#fff49b"/><stop offset="1" stop-color="#ffbb34"/></linearGradient><linearGradient id="cloud" x1="0" y1="0" x2=".65" y2="1"><stop stop-color="#ffffff"/><stop offset="1" stop-color="#c5e5fc"/></linearGradient><linearGradient id="storm" x1="0" y1="0" x2=".65" y2="1"><stop stop-color="#b5d9f4"/><stop offset="1" stop-color="#75abe1"/></linearGradient><linearGradient id="moon" x1="0" y1="0" x2=".65" y2="1"><stop stop-color="#fff1a0"/><stop offset="1" stop-color="#ffd258"/></linearGradient><linearGradient id="rain" x1="0" y1="0" x2=".65" y2="1"><stop stop-color="#79d1ff"/><stop offset="1" stop-color="#2884ee"/></linearGradient><linearGradient id="leaf" x1="0" y1="0" x2=".65" y2="1"><stop stop-color="#acd97c"/><stop offset="1" stop-color="#44ad87"/></linearGradient><filter id="shadow" x="-25%" y="-25%" width="150%" height="170%"><feGaussianBlur stdDeviation="3"/></filter></defs><g transform="translate(104 101) scale(0.95)"><path d="M17-58C-53-70-87 11-38 50C1 81 60 53 64 13C17 48-24 2 17-58Z" fill="url(#moon)"/><g transform="translate(-22 12) scale(0.65)"><ellipse cx="-13" cy="0" rx="3.5" ry="4.5" fill="#142b57"/><ellipse cx="13" cy="0" rx="3.5" ry="4.5" fill="#142b57"/><circle cx="-21" cy="10" r="6" fill="#ffab83" opacity=".7"/><circle cx="21" cy="10" r="6" fill="#ffab83" opacity=".7"/><path d="M-7 9Q0 18 7 9" fill="none" stroke="#142b57" stroke-width="3" stroke-linecap="round"/></g><path d="M59-40l4 10 11 1-8 7 2 11-9-6-10 6 3-11-9-7 12-1Z" fill="#bfa9f2"/><circle cx="37" cy="-60" r="5" fill="#d7c8fc"/></g><g transform="translate(145 165) scale(0.87)"><ellipse cx="0" cy="40" rx="79" ry="8" fill="#6d9bba" opacity=".1" filter="url(#shadow)"/><path d="M-62 33C-111 28-96-35-55-32C-39-85 33-81 47-33C99-44 113 27 65 34Z" fill="url(#cloud)"/><path d="M-51-21C-34-58 9-60 32-37" fill="none" stroke="#fff" opacity=".38" stroke-width="6" stroke-linecap="round"/></g></svg>
